<svg class="animated" id="freepik_stories-invoice" xmlns="http://www.w3.org/2000/svg" viewBox="0 0 500 500" version="1.1" xmlns:xlink="http://www.w3.org/1999/xlink" xmlns:svgjs="http://svgjs.com/svgjs"><style>svg#freepik_stories-invoice:not(.animated) .animable {opacity: 0;}svg#freepik_stories-invoice.animated #eloazp2rygom {animation: 0.5s 1 forwards ease-out zoomOut;animation-delay: 1.1s;opacity: 0}svg#freepik_stories-invoice.animated #eluon7j0qsenj {animation: 0.5s 1 forwards ease-out zoomOut;animation-delay: 0.013157894736842105s;opacity: 0}svg#freepik_stories-invoice.animated #elouwiuza8ohf {animation: 0.5s 1 forwards ease-out zoomOut;animation-delay: 0.02631578947368421s;opacity: 0}svg#freepik_stories-invoice.animated #elipl66up27a {animation: 0.5s 1 forwards ease-out zoomOut;animation-delay: 0.039473684210526314s;opacity: 0}svg#freepik_stories-invoice.animated #eltaqpbpmpaic {animation: 0.5s 1 forwards ease-out zoomOut;animation-delay: 0.05263157894736842s;opacity: 0}svg#freepik_stories-invoice.animated #elgi7o041yhr {animation: 0.5s 1 forwards ease-out zoomOut;animation-delay: 0.06578947368421052s;opacity: 0}svg#freepik_stories-invoice.animated #el15dqf95on9d {animation: 0.5s 1 forwards ease-out zoomOut;animation-delay: 0.07894736842105263s;opacity: 0}svg#freepik_stories-invoice.animated #el3gec46d29h1 {animation: 0.5s 1 forwards ease-out zoomOut;animation-delay: 0.09210526315789473s;opacity: 0}svg#freepik_stories-invoice.animated #elm7khgo8sce {animation: 0.5s 1 forwards ease-out zoomOut;animation-delay: 0.10526315789473684s;opacity: 0}svg#freepik_stories-invoice.animated #elf51c2z9g6b {animation: 0.5s 1 forwards ease-out zoomOut;animation-delay: 0.11842105263157894s;opacity: 0}svg#freepik_stories-invoice.animated #el2lu6jmb4d1s {animation: 0.5s 1 forwards ease-out zoomOut;animation-delay: 0.13157894736842105s;opacity: 0}svg#freepik_stories-invoice.animated #el4mzcjvwn1xx {animation: 0.5s 1 forwards ease-out zoomOut;animation-delay: 0.14473684210526316s;opacity: 0}svg#freepik_stories-invoice.animated #elorz2ixd0tl {animation: 0.5s 1 forwards ease-out zoomOut;animation-delay: 0.15789473684210525s;opacity: 0}svg#freepik_stories-invoice.animated #el5npxq84vr0b {animation: 0.5s 1 forwards ease-out zoomOut;animation-delay: 0.17105263157894735s;opacity: 0}svg#freepik_stories-invoice.animated #el2xt3ru8if36 {animation: 0.5s 1 forwards ease-out zoomOut;animation-delay: 0.18421052631578946s;opacity: 0}svg#freepik_stories-invoice.animated #elwohf2dlvfo9 {animation: 0.5s 1 forwards ease-out zoomOut;animation-delay: 0.19736842105263158s;opacity: 0}svg#freepik_stories-invoice.animated #ellx0czyu5ho {animation: 0.5s 1 forwards ease-out zoomOut;animation-delay: 0.21052631578947367s;opacity: 0}svg#freepik_stories-invoice.animated #elflf39jtv4id {animation: 0.5s 1 forwards ease-out zoomOut;animation-delay: 0.22368421052631576s;opacity: 0}svg#freepik_stories-invoice.animated #el8fnb0eyqdka {animation: 0.5s 1 forwards ease-out zoomOut;animation-delay: 0.23684210526315788s;opacity: 0}svg#freepik_stories-invoice.animated #elbiail3ubsr7 {animation: 0.5s 1 forwards ease-out zoomOut;animation-delay: 0.25s;opacity: 0}svg#freepik_stories-invoice.animated #elm0skfwau5mb {animation: 0.5s 1 forwards ease-out zoomOut;animation-delay: 0.2631578947368421s;opacity: 0}svg#freepik_stories-invoice.animated #ell4l91q2rtva {animation: 0.5s 1 forwards ease-out zoomOut;animation-delay: 0.2763157894736842s;opacity: 0}svg#freepik_stories-invoice.animated #eljgik9im3n59 {animation: 0.5s 1 forwards ease-out zoomOut;animation-delay: 0.2894736842105263s;opacity: 0}svg#freepik_stories-invoice.animated #elme4k1gsmnhs {animation: 0.5s 1 forwards ease-out zoomOut;animation-delay: 0.3026315789473684s;opacity: 0}svg#freepik_stories-invoice.animated #elmqyefjk9qio {animation: 0.5s 1 forwards ease-out zoomOut;animation-delay: 0.3157894736842105s;opacity: 0}svg#freepik_stories-invoice.animated #elnga6fikd5b {animation: 0.5s 1 forwards ease-out zoomOut;animation-delay: 0.3289473684210526s;opacity: 0}svg#freepik_stories-invoice.animated #elowz32pxooiq {animation: 0.5s 1 forwards ease-out zoomOut;animation-delay: 0.3421052631578947s;opacity: 0}svg#freepik_stories-invoice.animated #elv2uw840r0a {animation: 0.5s 1 forwards ease-out zoomOut;animation-delay: 0.35526315789473684s;opacity: 0}svg#freepik_stories-invoice.animated #elmm8cy2n4hnr {animation: 0.5s 1 forwards ease-out zoomOut;animation-delay: 0.3684210526315789s;opacity: 0}svg#freepik_stories-invoice.animated #elb1slwokf1st {animation: 0.5s 1 forwards ease-out zoomOut;animation-delay: 0.381578947368421s;opacity: 0}svg#freepik_stories-invoice.animated #elzldtg7izm2 {animation: 0.5s 1 forwards ease-out zoomOut;animation-delay: 0.39473684210526316s;opacity: 0}svg#freepik_stories-invoice.animated #el2popbdx0tp6 {animation: 0.5s 1 forwards ease-out zoomOut;animation-delay: 0.40789473684210525s;opacity: 0}svg#freepik_stories-invoice.animated #eld89337sal3 {animation: 0.5s 1 forwards ease-out zoomOut;animation-delay: 0.42105263157894735s;opacity: 0}svg#freepik_stories-invoice.animated #elvrk4i9xbcj {animation: 0.5s 1 forwards ease-out zoomOut;animation-delay: 0.43421052631578944s;opacity: 0}svg#freepik_stories-invoice.animated #el2fxanpryt3s {animation: 0.5s 1 forwards ease-out zoomOut;animation-delay: 0.4473684210526315s;opacity: 0}svg#freepik_stories-invoice.animated #ele9dzjuyp87c {animation: 0.5s 1 forwards ease-out zoomOut;animation-delay: 0.4605263157894737s;opacity: 0}svg#freepik_stories-invoice.animated #elk5kldvu6x2 {animation: 0.5s 1 forwards ease-out zoomOut;animation-delay: 0.47368421052631576s;opacity: 0}svg#freepik_stories-invoice.animated #elf2zqlxczjk {animation: 0.5s 1 forwards ease-out zoomOut;animation-delay: 0.48684210526315785s;opacity: 0}svg#freepik_stories-invoice.animated #freepik--Icons--inject-2 {animation: 0.5s 1 forwards ease-out zoomOut,1.5s Infinite  linear floating;animation-delay: 1.1s,1.6s;opacity: 0}            @keyframes zoomOut {                0% {                    opacity: 0;                    transform: scale(1.5);                }                100% {                    opacity: 1;                    transform: scale(1);                }            }                    @keyframes floating {                0% {                    opacity: 1;                    transform: translateY(0px);                }                50% {                    transform: translateY(-10px);                }                100% {                    opacity: 1;                    transform: translateY(0px);                }            }        </style><g id="freepik--background-simple--inject-2" class="animable" style="transform-origin: 253.416px 230.614px;"><path d="M132.36,86.75S70.52,137.64,47.54,200.51,42.25,334,95.42,377.93s132.09,19.64,206.42,38.69S449,412.8,465.91,334.93s-36.63-94.08-62.13-174.5S280.19-24.69,132.36,86.75Z" style="fill: #FE4934; transform-origin: 253.416px 230.614px;" id="elhbmiv0eorj6" class="animable"></path><g id="eluwenqjb4lxq"><path d="M132.36,86.75S70.52,137.64,47.54,200.51,42.25,334,95.42,377.93s132.09,19.64,206.42,38.69S449,412.8,465.91,334.93s-36.63-94.08-62.13-174.5S280.19-24.69,132.36,86.75Z" style="fill: rgb(255, 255, 255); opacity: 0.7; transform-origin: 253.416px 230.614px;" class="animable" id="eltyie7cpoqn"></path></g></g><g id="freepik--Floor--inject-2" class="animable" style="transform-origin: 247.2px 425.46px;"><line x1="49.92" y1="425.46" x2="462" y2="425.46" style="fill: none; stroke: rgb(38, 50, 56); stroke-miterlimit: 10; transform-origin: 255.96px 425.46px;" id="elj98hr5irfl" class="animable"></line><line x1="32.4" y1="425.46" x2="38.85" y2="425.46" style="fill: none; stroke: rgb(38, 50, 56); stroke-miterlimit: 10; transform-origin: 35.625px 425.46px;" id="el9x3kzzhm22f" class="animable"></line></g><g id="freepik--Icons--inject-2" class="animable animator-active" style="transform-origin: 252.886px 228.951px;"><rect x="173.33" y="99.81" width="54.96" height="34.57" rx="1.66" style="fill: none; stroke: rgb(38, 50, 56); stroke-miterlimit: 10; transform-origin: 200.81px 117.095px;" id="eloazp2rygom" class="animable"></rect><rect x="173.33" y="120.2" width="54.96" height="7.98" style="fill: none; stroke: rgb(38, 50, 56); stroke-miterlimit: 10; transform-origin: 200.81px 124.19px;" id="eluon7j0qsenj" class="animable"></rect><circle cx="219.65" cy="106.46" r="3.77" style="fill: none; stroke: rgb(38, 50, 56); stroke-miterlimit: 10; transform-origin: 219.65px 106.46px;" id="elouwiuza8ohf" class="animable"></circle><circle cx="213.89" cy="106.46" r="3.77" style="fill: none; stroke: rgb(38, 50, 56); stroke-miterlimit: 10; transform-origin: 213.89px 106.46px;" id="elipl66up27a" class="animable"></circle><line x1="178.21" y1="105.35" x2="193.28" y2="105.35" style="fill: none; stroke: rgb(38, 50, 56); stroke-miterlimit: 10; transform-origin: 185.745px 105.35px;" id="eltaqpbpmpaic" class="animable"></line><rect x="56.7" y="254" width="54.96" height="34.57" rx="1.66" style="fill: none; stroke: rgb(38, 50, 56); stroke-miterlimit: 10; transform-origin: 84.18px 271.285px;" id="elgi7o041yhr" class="animable"></rect><rect x="56.7" y="274.39" width="54.96" height="7.98" style="fill: none; stroke: rgb(38, 50, 56); stroke-miterlimit: 10; transform-origin: 84.18px 278.38px;" id="el15dqf95on9d" class="animable"></rect><path d="M106.78,260.65a3.77,3.77,0,1,1-3.77-3.77A3.77,3.77,0,0,1,106.78,260.65Z" style="fill: none; stroke: rgb(38, 50, 56); stroke-miterlimit: 10; transform-origin: 103.01px 260.65px;" id="el3gec46d29h1" class="animable"></path><circle cx="97.25" cy="260.65" r="3.77" style="fill: none; stroke: rgb(38, 50, 56); stroke-miterlimit: 10; transform-origin: 97.25px 260.65px;" id="elm7khgo8sce" class="animable"></circle><line x1="61.57" y1="259.54" x2="76.64" y2="259.54" style="fill: none; stroke: rgb(38, 50, 56); stroke-miterlimit: 10; transform-origin: 69.105px 259.54px;" id="elf51c2z9g6b" class="animable"></line><rect x="366.56" y="66.56" width="34.15" height="34.15" style="fill: none; stroke: rgb(38, 50, 56); stroke-miterlimit: 10; transform-origin: 383.635px 83.635px;" id="el2lu6jmb4d1s" class="animable"></rect><polygon points="394.19 81.01 385.48 81.01 385.48 72.31 381.79 72.31 381.79 81.01 373.09 81.01 373.09 84.7 381.79 84.7 381.79 93.41 385.48 93.41 385.48 84.7 394.19 84.7 394.19 81.01" style="fill: none; stroke: rgb(38, 50, 56); stroke-miterlimit: 10; transform-origin: 383.64px 82.86px;" id="el4mzcjvwn1xx" class="animable"></polygon><rect x="400.64" y="66.56" width="34.15" height="34.15" style="fill: none; stroke: rgb(38, 50, 56); stroke-miterlimit: 10; transform-origin: 417.715px 83.635px;" id="elorz2ixd0tl" class="animable"></rect><rect x="408.61" y="81.01" width="18.19" height="3.16" style="fill: none; stroke: rgb(38, 50, 56); stroke-miterlimit: 10; transform-origin: 417.705px 82.59px;" id="el5npxq84vr0b" class="animable"></rect><rect x="366.56" y="100.65" width="34.15" height="34.15" style="fill: none; stroke: rgb(38, 50, 56); stroke-miterlimit: 10; transform-origin: 383.635px 117.725px;" id="el2xt3ru8if36" class="animable"></rect><polygon points="389.79 108.18 383.64 114.33 377.49 108.18 374.88 110.79 381.03 116.94 374.88 123.09 377.49 125.7 383.64 119.55 389.79 125.7 392.4 123.09 386.25 116.94 392.4 110.79 389.79 108.18" style="fill: none; stroke: rgb(38, 50, 56); stroke-miterlimit: 10; transform-origin: 383.64px 116.94px;" id="elwohf2dlvfo9" class="animable"></polygon><rect x="400.64" y="100.65" width="34.15" height="34.15" style="fill: none; stroke: rgb(38, 50, 56); stroke-miterlimit: 10; transform-origin: 417.715px 117.725px;" id="ellx0czyu5ho" class="animable"></rect><rect x="408.61" y="115.09" width="18.19" height="3.16" style="fill: none; stroke: rgb(38, 50, 56); stroke-miterlimit: 10; transform-origin: 417.705px 116.67px;" id="elflf39jtv4id" class="animable"></rect><path d="M417.71,112.2a2.29,2.29,0,1,0-2.29-2.29A2.29,2.29,0,0,0,417.71,112.2Z" style="fill: none; stroke: rgb(38, 50, 56); stroke-miterlimit: 10; transform-origin: 417.71px 109.91px;" id="el8fnb0eyqdka" class="animable"></path><circle cx="417.71" cy="123.8" r="2.29" style="fill: none; stroke: rgb(38, 50, 56); stroke-miterlimit: 10; transform-origin: 417.71px 123.8px;" id="elbiail3ubsr7" class="animable"></circle><rect x="36.08" y="366" width="21.57" height="21.57" style="fill: none; stroke: rgb(38, 50, 56); stroke-miterlimit: 10; transform-origin: 46.865px 376.785px;" id="elm0skfwau5mb" class="animable"></rect><polygon points="53.52 375.13 48.03 375.13 48.03 369.63 45.7 369.63 45.7 375.13 40.2 375.13 40.2 377.46 45.7 377.46 45.7 382.95 48.03 382.95 48.03 377.46 53.52 377.46 53.52 375.13" style="fill: none; stroke: rgb(38, 50, 56); stroke-miterlimit: 10; transform-origin: 46.86px 376.29px;" id="ell4l91q2rtva" class="animable"></polygon><rect x="57.6" y="366" width="21.57" height="21.57" style="fill: none; stroke: rgb(38, 50, 56); stroke-miterlimit: 10; transform-origin: 68.385px 376.785px;" id="eljgik9im3n59" class="animable"></rect><rect x="62.64" y="375.13" width="11.49" height="2" style="fill: none; stroke: rgb(38, 50, 56); stroke-miterlimit: 10; transform-origin: 68.385px 376.13px;" id="elme4k1gsmnhs" class="animable"></rect><rect x="36.08" y="387.53" width="21.57" height="21.57" style="fill: none; stroke: rgb(38, 50, 56); stroke-miterlimit: 10; transform-origin: 46.865px 398.315px;" id="elmqyefjk9qio" class="animable"></rect><polygon points="50.75 392.28 46.86 396.17 42.98 392.28 41.33 393.93 45.22 397.82 41.33 401.7 42.98 403.35 46.86 399.46 50.75 403.35 52.4 401.7 48.51 397.82 52.4 393.93 50.75 392.28" style="fill: none; stroke: rgb(38, 50, 56); stroke-miterlimit: 10; transform-origin: 46.865px 397.815px;" id="elnga6fikd5b" class="animable"></polygon><rect x="57.6" y="387.53" width="21.57" height="21.57" style="fill: none; stroke: rgb(38, 50, 56); stroke-miterlimit: 10; transform-origin: 68.385px 398.315px;" id="elowz32pxooiq" class="animable"></rect><rect x="62.64" y="396.65" width="11.49" height="2" style="fill: none; stroke: rgb(38, 50, 56); stroke-miterlimit: 10; transform-origin: 68.385px 397.65px;" id="elv2uw840r0a" class="animable"></rect><circle cx="68.38" cy="393.38" r="1.44" style="fill: none; stroke: rgb(38, 50, 56); stroke-miterlimit: 10; transform-origin: 68.38px 393.38px;" id="elmm8cy2n4hnr" class="animable"></circle><path d="M68.38,400.7a1.45,1.45,0,1,0,1.45,1.45A1.45,1.45,0,0,0,68.38,400.7Z" style="fill: none; stroke: rgb(38, 50, 56); stroke-miterlimit: 10; transform-origin: 68.38px 402.15px;" id="elb1slwokf1st" class="animable"></path><path d="M297.48,109.2a.24.24,0,0,0-.2.23l0,1.48a.49.49,0,0,1-.56.56h-1.95a.49.49,0,0,1-.56-.56l.07-1.51a.26.26,0,0,0-.2-.24c-3.76-.46-5.93-2.73-5.93-5.9v-1.41a.5.5,0,0,1,.56-.56h3.42c.37,0,.57.16.57.42v.47a3,3,0,0,0,3.32,3.13c2.11,0,3-1.29,3-2.61,0-2.34-4.28-2.7-7.45-4.74-2-1.26-3.46-2.87-3.46-5.67,0-3.46,2.15-5.9,5.94-6.46a.25.25,0,0,0,.19-.23l-.06-1.78a.49.49,0,0,1,.56-.56h1.88a.5.5,0,0,1,.56.56l0,1.74a.23.23,0,0,0,.19.23c4,.43,6.2,2.84,6.2,6.23v1.09a.51.51,0,0,1-.56.56h-3.46c-.36,0-.56-.13-.56-.33V93a3.09,3.09,0,0,0-3.3-3.33c-1.84,0-3,1-3,2.44,0,2.14,3,2.47,6.09,3.83,3.4,1.51,4.88,3.62,4.88,6.52C303.71,106.1,301.5,108.67,297.48,109.2Z" style="fill: none; stroke: rgb(38, 50, 56); stroke-miterlimit: 10; transform-origin: 295.885px 97.365px;" id="elzldtg7izm2" class="animable"></path><circle cx="295.66" cy="97.54" r="18.74" style="fill: none; stroke: rgb(38, 50, 56); stroke-miterlimit: 10; transform-origin: 295.66px 97.54px;" id="el2popbdx0tp6" class="animable"></circle><path d="M147.33,74.35a.17.17,0,0,0-.14.16l0,1a.33.33,0,0,1-.38.37h-1.3a.33.33,0,0,1-.38-.37l.05-1a.17.17,0,0,0-.13-.15c-2.52-.31-4-1.83-4-4v-.95a.35.35,0,0,1,.38-.38h2.29c.25,0,.38.11.38.29v.31a2,2,0,0,0,2.23,2.1,1.76,1.76,0,0,0,2-1.75c0-1.56-2.87-1.81-5-3.18A4.16,4.16,0,0,1,141.08,63a4.21,4.21,0,0,1,4-4.33.17.17,0,0,0,.14-.15l-.05-1.19a.33.33,0,0,1,.38-.38h1.26a.34.34,0,0,1,.37.38l0,1.17a.16.16,0,0,0,.13.15c2.65.29,4.15,1.9,4.15,4.17v.73A.34.34,0,0,1,151,64h-2.31c-.25,0-.38-.08-.38-.22v-.22a2.06,2.06,0,0,0-2.2-2.23c-1.24,0-2,.64-2,1.64,0,1.43,2,1.65,4.08,2.56,2.28,1,3.27,2.43,3.27,4.37C151.5,72.28,150,74,147.33,74.35Z" style="fill: none; stroke: rgb(38, 50, 56); stroke-miterlimit: 10; transform-origin: 146.271px 66.4149px;" id="eld89337sal3" class="animable"></path><g id="elvrk4i9xbcj" class=""><circle cx="146.1" cy="66.55" r="12.55" style="fill: none; stroke: rgb(38, 50, 56); stroke-miterlimit: 10; transform-origin: 146.1px 66.55px; transform: rotate(-45deg);" class="animable" id="elpjuycwg7qsn"></circle></g><path d="M50.19,200.07a.15.15,0,0,0-.13.15l0,1c0,.27-.13.38-.37.38H48.4c-.24,0-.37-.11-.37-.38l0-1a.17.17,0,0,0-.13-.16c-2.52-.3-4-1.83-4-3.95v-1a.33.33,0,0,1,.37-.37h2.3c.24,0,.37.11.37.29v.31a2,2,0,0,0,2.23,2.09,1.76,1.76,0,0,0,2-1.74c0-1.57-2.87-1.81-5-3.18a4.31,4.31,0,0,1,1.66-8.12.16.16,0,0,0,.13-.16l0-1.19a.32.32,0,0,1,.37-.37h1.26a.34.34,0,0,1,.38.37l0,1.17a.18.18,0,0,0,.14.16c2.64.28,4.15,1.89,4.15,4.17v.73a.34.34,0,0,1-.38.37H51.58c-.24,0-.37-.09-.37-.22v-.22A2.07,2.07,0,0,0,49,187c-1.24,0-2,.64-2,1.63,0,1.44,2,1.66,4.09,2.56,2.27,1,3.26,2.43,3.26,4.37C54.36,198,52.88,199.71,50.19,200.07Z" style="fill: none; stroke: rgb(38, 50, 56); stroke-miterlimit: 10; transform-origin: 49.1004px 192.133px;" id="el2fxanpryt3s" class="animable"></path><g id="ele9dzjuyp87c" class=""><circle cx="48.97" cy="192.26" r="12.55" style="fill: none; stroke: rgb(38, 50, 56); stroke-miterlimit: 10; transform-origin: 48.97px 192.26px; transform: rotate(-45deg);" class="animable" id="elib346kjt6wo"></circle></g><path d="M463.22,371.81a.15.15,0,0,0-.13.15l0,1c0,.27-.13.38-.37.38h-1.31c-.24,0-.37-.11-.37-.38l0-1a.17.17,0,0,0-.13-.16c-2.52-.31-4-1.83-4-3.95v-.95a.33.33,0,0,1,.37-.37h2.3c.24,0,.37.11.37.29v.3a2,2,0,0,0,2.23,2.1,1.76,1.76,0,0,0,2-1.74c0-1.57-2.87-1.81-5-3.18a4.31,4.31,0,0,1,1.66-8.12.17.17,0,0,0,.13-.16l0-1.19a.32.32,0,0,1,.37-.37h1.26a.34.34,0,0,1,.38.37l0,1.17a.16.16,0,0,0,.14.15c2.64.29,4.15,1.9,4.15,4.18V361a.34.34,0,0,1-.38.38h-2.32c-.24,0-.37-.09-.37-.22V361a2.06,2.06,0,0,0-2.21-2.23c-1.24,0-2,.64-2,1.63,0,1.44,2,1.66,4.09,2.56,2.27,1,3.26,2.43,3.26,4.37C467.39,369.73,465.91,371.45,463.22,371.81Z" style="fill: none; stroke: rgb(38, 50, 56); stroke-miterlimit: 10; transform-origin: 462.101px 363.898px;" id="elk5kldvu6x2" class="animable"></path><circle cx="462" cy="364" r="12.55" style="fill: none; stroke: rgb(38, 50, 56); stroke-miterlimit: 10; transform-origin: 462px 364px;" id="elf2zqlxczjk" class="animable"></circle></g><g id="freepik--Device--inject-2" class="animable" style="transform-origin: 256.61px 300.375px;"><path d="M421.85,448.51c0,3.34-76.58,6.05-171,6.05s-171-2.71-171-6.05,76.58-6,171.05-6S421.85,445.18,421.85,448.51Z" style="fill: rgb(204, 204, 204); transform-origin: 250.85px 448.535px;" id="elwfdxeka65ze" class="animable"></path><path d="M238.5,394.21s8.32,35.76,4.7,41.63c-4.74,7.69-55.15,12.32-55.15,12.32H299.21s13.93-3.91,9.74-15.11c-3.24-8.66-18.79-38.84-18.79-38.84Z" style="fill: rgb(255, 255, 255); stroke: rgb(38, 50, 56); stroke-linecap: round; stroke-linejoin: round; transform-origin: 248.893px 421.185px;" id="elxcxuiv8z4r" class="animable"></path><path d="M236.06,394.21s8.88,36.06,4.7,41.63-52.71,9.84-52.71,9.84H299.73s9.39-3.79,6.78-12.63-18.78-38.84-18.78-38.84Z" style="fill: rgb(255, 255, 255); stroke: rgb(38, 50, 56); stroke-linecap: round; stroke-linejoin: round; transform-origin: 247.509px 419.945px;" id="elxnn49qs65o" class="animable"></path><path d="M287.73,394.21H236.06s5.26,21.36,5.77,33.74h62.75C299.5,416.05,287.73,394.21,287.73,394.21Z" style="fill: rgb(38, 50, 56); stroke: rgb(38, 50, 56); stroke-linecap: round; stroke-linejoin: round; transform-origin: 270.32px 411.08px;" id="elaeqf7rqoozd" class="animable"></path><rect x="188.05" y="445.86" width="111.15" height="2.3" style="fill: rgb(255, 255, 255); stroke: rgb(38, 50, 56); stroke-linecap: round; stroke-linejoin: round; transform-origin: 243.625px 447.01px;" id="el1unlriaxvbn" class="animable"></rect><rect x="97.99" y="146.19" width="335.38" height="251.53" rx="8.48" style="fill: rgb(255, 255, 255); stroke: rgb(38, 50, 56); stroke-linecap: round; stroke-linejoin: round; transform-origin: 265.68px 271.955px;" id="elu7roxqm8v5" class="animable"></rect><rect x="90.09" y="146.19" width="335.38" height="251.53" rx="8.48" style="fill: rgb(38, 50, 56); stroke: rgb(38, 50, 56); stroke-linecap: round; stroke-linejoin: round; transform-origin: 257.78px 271.955px;" id="el6hqr272tuig" class="animable"></rect><path d="M90.09,358.63H425.47a0,0,0,0,1,0,0v30.61a8.48,8.48,0,0,1-8.48,8.48H98.57a8.48,8.48,0,0,1-8.48-8.48V358.63A0,0,0,0,1,90.09,358.63Z" style="fill: rgb(255, 255, 255); stroke: rgb(38, 50, 56); stroke-linecap: round; stroke-linejoin: round; transform-origin: 257.78px 378.175px;" id="elaj5y6br7q7p" class="animable"></path><rect x="106.96" y="161.84" width="301.64" height="177.71" style="fill: rgb(255, 255, 255); stroke: rgb(38, 50, 56); stroke-linecap: round; stroke-linejoin: round; transform-origin: 257.78px 250.695px;" id="elwy1ikzb0609" class="animable"></rect><rect x="122.08" y="264.15" width="256.06" height="11.24" style="fill: #FE4934; transform-origin: 250.11px 269.77px;" id="elgt6qscqnzza" class="animable"></rect><rect x="122.08" y="285.39" width="256.06" height="11.24" style="fill: #FE4934; transform-origin: 250.11px 291.01px;" id="elgtf0zlsjhu5" class="animable"></rect><line x1="122.06" y1="197.11" x2="167.11" y2="197.11" style="fill: none; stroke: rgb(38, 50, 56); stroke-miterlimit: 10; transform-origin: 144.585px 197.11px;" id="el5aeg53wl74u" class="animable"></line><line x1="122.06" y1="203.73" x2="167.11" y2="203.73" style="fill: none; stroke: rgb(38, 50, 56); stroke-miterlimit: 10; transform-origin: 144.585px 203.73px;" id="el24ld8ccbxyn" class="animable"></line><line x1="268.13" y1="203.73" x2="313.18" y2="203.73" style="fill: none; stroke: rgb(38, 50, 56); stroke-miterlimit: 10; transform-origin: 290.655px 203.73px;" id="elcts4vyq5sm" class="animable"></line><line x1="268.13" y1="210.32" x2="313.18" y2="210.32" style="fill: none; stroke: rgb(38, 50, 56); stroke-miterlimit: 10; transform-origin: 290.655px 210.32px;" id="elqyglxnt0zr9" class="animable"></line><line x1="268.13" y1="216.91" x2="313.18" y2="216.91" style="fill: none; stroke: rgb(38, 50, 56); stroke-miterlimit: 10; transform-origin: 290.655px 216.91px;" id="el3wo70uw1hjd" class="animable"></line><line x1="122.06" y1="210.36" x2="167.11" y2="210.36" style="fill: none; stroke: rgb(38, 50, 56); stroke-miterlimit: 10; transform-origin: 144.585px 210.36px;" id="elqmagdoh2h1" class="animable"></line><line x1="122.06" y1="321.55" x2="167.11" y2="321.55" style="fill: none; stroke: rgb(38, 50, 56); stroke-miterlimit: 10; transform-origin: 144.585px 321.55px;" id="el8bly9rlxwsf" class="animable"></line><line x1="122.06" y1="327.69" x2="167.11" y2="327.69" style="fill: none; stroke: rgb(38, 50, 56); stroke-miterlimit: 10; transform-origin: 144.585px 327.69px;" id="els67zz84gynp" class="animable"></line><line x1="122.06" y1="216.98" x2="167.11" y2="216.98" style="fill: none; stroke: rgb(38, 50, 56); stroke-miterlimit: 10; transform-origin: 144.585px 216.98px;" id="el6qxrvqyr84g" class="animable"></line><rect x="122.06" y="223.61" width="107.98" height="11.92" style="fill: #FE4934; transform-origin: 176.05px 229.57px;" id="elky8yeafull" class="animable"></rect><rect x="320.79" y="211.68" width="56.97" height="5.96" style="fill: #FE4934; transform-origin: 349.275px 214.66px;" id="el83jfgc8dy4o" class="animable"></rect><rect x="320.79" y="196.45" width="56.97" height="21.2" style="fill: none; stroke: rgb(38, 50, 56); stroke-miterlimit: 10; transform-origin: 349.275px 207.05px;" id="el8n8eunr2hn4" class="animable"></rect><rect x="320.79" y="202.41" width="56.97" height="9.27" style="fill: none; stroke: rgb(38, 50, 56); stroke-miterlimit: 10; transform-origin: 349.275px 207.045px;" id="elmdqxwngl3h" class="animable"></rect><line x1="329.46" y1="196.63" x2="329.46" y2="217.39" style="fill: none; stroke: rgb(38, 50, 56); stroke-miterlimit: 10; transform-origin: 329.46px 207.01px;" id="eljnd0lpt8xw" class="animable"></line><rect x="122.08" y="243.54" width="256.06" height="71.82" style="fill: none; stroke: rgb(38, 50, 56); stroke-miterlimit: 10; transform-origin: 250.11px 279.45px;" id="elzgdqi6aqbwe" class="animable"></rect><rect x="122.08" y="243.54" width="256.06" height="11.24" style="fill: #FE4934; stroke: rgb(38, 50, 56); stroke-miterlimit: 10; transform-origin: 250.11px 249.16px;" id="elonfryo8yw6p" class="animable"></rect><line x1="302.85" y1="243.81" x2="302.85" y2="315.24" style="fill: none; stroke: rgb(38, 50, 56); stroke-miterlimit: 10; transform-origin: 302.85px 279.525px;" id="el7vxg3zvopsu" class="animable"></line><line x1="330.68" y1="243.81" x2="330.68" y2="315.24" style="fill: none; stroke: rgb(38, 50, 56); stroke-miterlimit: 10; transform-origin: 330.68px 279.525px;" id="eleiwl4sa4uj" class="animable"></line><rect x="302.62" y="319.63" width="27.97" height="16.63" style="fill: #FE4934; transform-origin: 316.605px 327.945px;" id="elhhpt3oz24zk" class="animable"></rect><path d="M313.18,325.93v1.28c0,1.57-.75,2.42-2.3,2.42h-.72v3.69h-1.54v-9.81h2.26C312.43,323.51,313.18,324.36,313.18,325.93Zm-3-1v3.32h.72c.5,0,.76-.22.76-.92v-1.48c0-.7-.26-.92-.76-.92Z" style="fill: rgb(38, 50, 56); transform-origin: 310.9px 328.415px;" id="el52gjk02iee5" class="animable"></path><path d="M319.26,333.32H317.7l-.26-1.78h-1.89l-.27,1.78h-1.41l1.56-9.81h2.26Zm-3.52-3.11h1.49l-.74-5Z" style="fill: rgb(38, 50, 56); transform-origin: 316.565px 328.415px;" id="el68v8sb6yth4" class="animable"></path><path d="M321.29,330.07l-2-6.56H321l1.18,4.47,1.17-4.47h1.48l-1.95,6.56v3.25h-1.54Z" style="fill: rgb(38, 50, 56); transform-origin: 322.06px 328.415px;" id="el8h4b1jfbxb" class="animable"></path><path d="M122.62,177.87h2.31v14.7h-2.31Z" style="fill: rgb(38, 50, 56); transform-origin: 123.775px 185.22px;" id="eldicn0150blf" class="animable"></path><path d="M129.09,181.92v10.65H127v-14.7h2.9l2.37,8.8v-8.8h2.06v14.7H132Z" style="fill: rgb(38, 50, 56); transform-origin: 130.665px 185.22px;" id="el43edpiun4xz" class="animable"></path><path d="M139.9,189.86l1.77-12h2.12l-2.27,14.7h-3.44l-2.27-14.7h2.33Z" style="fill: rgb(38, 50, 56); transform-origin: 139.8px 185.21px;" id="elpfmwkhmygt" class="animable"></path><path d="M145.07,181.4c0-2.36,1.24-3.7,3.51-3.7s3.5,1.34,3.5,3.7V189c0,2.35-1.23,3.69-3.5,3.69s-3.51-1.34-3.51-3.69Zm2.31,7.79c0,1,.46,1.44,1.2,1.44s1.19-.4,1.19-1.44v-7.94c0-1.05-.46-1.45-1.19-1.45s-1.2.4-1.2,1.45Z" style="fill: rgb(38, 50, 56); transform-origin: 148.575px 185.195px;" id="elq1f59mypd7p" class="animable"></path><path d="M154,177.87h2.31v14.7H154Z" style="fill: rgb(38, 50, 56); transform-origin: 155.155px 185.22px;" id="elgtdckzzydz" class="animable"></path><path d="M165.1,187.09V189c0,2.35-1.17,3.69-3.44,3.69s-3.44-1.34-3.44-3.69V181.4c0-2.36,1.17-3.7,3.44-3.7s3.44,1.34,3.44,3.7v1.42h-2.18v-1.57c0-1.05-.46-1.45-1.2-1.45s-1.19.4-1.19,1.45v7.94c0,1,.46,1.42,1.19,1.42s1.2-.38,1.2-1.42v-2.1Z" style="fill: rgb(38, 50, 56); transform-origin: 161.66px 185.195px;" id="ell8f38ptrej" class="animable"></path><path d="M169.24,184.06h3.17v2.1h-3.17v4.31h4v2.1h-6.3v-14.7h6.3V180h-4Z" style="fill: rgb(38, 50, 56); transform-origin: 170.09px 185.22px;" id="elgmzlvl9y35m" class="animable"></path><rect x="106.96" y="161.84" width="301.64" height="8.21" style="fill: #FE4934; stroke: rgb(38, 50, 56); stroke-linecap: round; stroke-linejoin: round; transform-origin: 257.78px 165.945px;" id="el2zqqvsg4yxo" class="animable"></rect><path d="M264,378.18a6.19,6.19,0,1,0-6.18,6.18A6.19,6.19,0,0,0,264,378.18Z" style="fill: rgb(38, 50, 56); stroke: rgb(38, 50, 56); stroke-linecap: round; stroke-linejoin: round; transform-origin: 257.81px 378.17px;" id="elzeebxyb6u1g" class="animable"></path></g><g id="freepik--Character--inject-2" class="animable" style="transform-origin: 407.955px 349.952px;"><path d="M434.47,462.81c0,4-17.78,7.19-39.72,7.19S355,466.78,355,462.81s17.79-7.19,39.72-7.19S434.47,458.84,434.47,462.81Z" style="fill: rgb(204, 204, 204); transform-origin: 394.735px 462.81px;" id="elix5fxtte1i" class="animable"></path><path d="M370.2,278.5s-4.28,1.6-5.61,7.62-4.15,24.2-5.62,32.76-9.36,36.36-9.36,36.36l4.15,2.81s10.16-14.84,13-21.79,5.61-11.77,6-17.12-.26-34.76-.26-37S371.41,278.23,370.2,278.5Z" style="fill: #FE4934; stroke: rgb(38, 50, 56); stroke-linecap: round; stroke-linejoin: round; transform-origin: 361.247px 318.261px;" id="el3jms1j4xfqr" class="animable"></path><path d="M374.08,453.07s-10.56,6.82-11.77,9.22,1.07,3.08,7,2.28,10-3.88,12.83-5.49,4.15-1.73,3.21-5.34S374.08,453.07,374.08,453.07Z" style="fill: rgb(255, 255, 255); stroke: rgb(38, 50, 56); stroke-linecap: round; stroke-linejoin: round; transform-origin: 373.823px 458.416px;" id="elj880uyciibi" class="animable"></path><path d="M415.39,454.14s11.64,7.88,11,9.62-4.15,2.54-10.3.54-7.49-3.61-10-5.75-1.6-4.81-1.6-6.69S415.39,454.14,415.39,454.14Z" style="fill: rgb(255, 255, 255); stroke: rgb(38, 50, 56); stroke-linecap: round; stroke-linejoin: round; transform-origin: 415.372px 458.424px;" id="elnulka5w39xr" class="animable"></path><path d="M368.6,332s-2.41,21.12-2.68,38,7.49,81.11,7.49,81.78v2a18.48,18.48,0,0,0,6.29,1.6,52.94,52.94,0,0,0,6.81-.27s0-11.9.27-21.12,1.74-51.3,1.74-51.3l.4-18.18,2.67,1.74,12.57,89.13,11.23-1.2s1.34-59.32,1.07-75.63S413,333.45,413,333.45Z" style="fill: rgb(38, 50, 56); stroke: rgb(38, 50, 56); stroke-linecap: round; stroke-linejoin: round; transform-origin: 391.205px 393.698px;" id="elk6cyh6ezcdj" class="animable"></path><path d="M389.59,272.22s-17.78,5.48-19.39,6.28-2.67,5.08-2.67,10.43,2,31.82,1.74,35-1.87,7.22-.54,9.49,19,3.74,28.48,3.34,14.84.54,16.18-2.14,2.14-35.69,3.47-43.32,2.28-11.63-.4-13.77-16.84-4.68-20.32-5.48Z" style="fill: #FE4934; stroke: rgb(38, 50, 56); stroke-linecap: round; stroke-linejoin: round; transform-origin: 392.85px 304.438px;" id="elvdlg5nysxu7" class="animable"></path><path d="M389,268.85s-2.95,1-3.93,3.21-3.92,13.21-2.85,13.74,9.37-3.48,10.62-3.21,6.33,6.87,7.85,6,5.09-10.26,3.75-15.08S390.33,267.6,389,268.85Z" style="fill: rgb(255, 255, 255); stroke: rgb(38, 50, 56); stroke-linecap: round; stroke-linejoin: round; transform-origin: 393.362px 278.521px;" id="el4ropnbjjv3n" class="animable"></path><path d="M387.38,265.82s-.09,4.9-.09,7.4,2.15,11.42,4,11.07,9.64-9.1,10.89-11.43,1.51-7.13,1.51-7.13-5.53,3.92-9.72,2.67A36.52,36.52,0,0,1,387.38,265.82Z" style="fill: rgb(204, 204, 204); stroke: rgb(38, 50, 56); stroke-linecap: round; stroke-linejoin: round; transform-origin: 395.49px 275.015px;" id="elm86giqo5ld9" class="animable"></path><path d="M394,268.4a36.52,36.52,0,0,1-6.61-2.58s0,1.93-.06,4c.61,1.31,1.19,2.41,1.6,3.19a5.18,5.18,0,0,0,6.62,2.77,21.42,21.42,0,0,0,7.56-5.59,30.42,30.42,0,0,0,.61-4.44S398.18,269.65,394,268.4Z" style="fill: rgb(38, 50, 56); stroke: rgb(38, 50, 56); stroke-linecap: round; stroke-linejoin: round; transform-origin: 395.525px 270.939px;" id="elqus76bg1a4" class="animable"></path><path d="M385.28,251.46s-.5-3.56-2.18-2.11-1.38,5.09-.58,6.84,1.67,1.53,1.89,1.45S385.28,251.46,385.28,251.46Z" style="fill: rgb(204, 204, 204); stroke: rgb(38, 50, 56); stroke-linecap: round; stroke-linejoin: round; transform-origin: 383.579px 253.348px;" id="elh6v631pg4r" class="animable"></path><path d="M408.56,254.88c.22-.36,2.91-9.38,3.06-14.26s-6.91-9.45-11.93-10.4-12.44.29-14,3.13-1.75,14-1.75,15.86,1.46,2.18,1.82,1.74,1.46-11.42,2.11-12.22,12.29-.43,14.11.07,2.84,2.41,2.48,5.17.07,2.62.8,4.22.72,2.18.72,4.36S407,257.35,408.56,254.88Z" style="fill: rgb(38, 50, 56); stroke: rgb(38, 50, 56); stroke-linecap: round; stroke-linejoin: round; transform-origin: 397.781px 242.892px;" id="elx1wpk6h3o4a" class="animable"></path><path d="M386.89,238.37a121.69,121.69,0,0,0-2.62,16.22c-.37,6.47,3.2,13.16,4.65,15.93s4.08,3.71,6.62,2.76a22.36,22.36,0,0,0,8.8-7c2.69-3.49,4.08-11.86,4.08-11.86s-1.1.58-1.17-.36.66-4.22-.07-6.33-2.33-2.62-1.38-4.66a13.61,13.61,0,0,0,1.31-3.63c0-.37-3.64-2.55-10.26-3.13S387.25,236.55,386.89,238.37Z" style="fill: rgb(204, 204, 204); stroke: rgb(38, 50, 56); stroke-linecap: round; stroke-linejoin: round; transform-origin: 396.332px 254.883px;" id="elb3pg8k8s4k6" class="animable"></path><path d="M387.61,244.33s1.95-1.69,4.66.26" style="fill: none; stroke: rgb(38, 50, 56); stroke-linecap: round; stroke-linejoin: round; transform-origin: 389.94px 244.12px;" id="elfhq1zzvtoew" class="animable"></path><path d="M397.45,245.1s4.66-1.87,6.53,1.44" style="fill: none; stroke: rgb(38, 50, 56); stroke-linecap: round; stroke-linejoin: round; transform-origin: 400.715px 245.557px;" id="elm95ct6u8nvd" class="animable"></path><path d="M407.69,255.46s1.45-3.27,3.56-3.42,1.82,4-.14,6.7-4.8,3.78-4.88,1.81" style="fill: rgb(204, 204, 204); stroke: rgb(38, 50, 56); stroke-linecap: round; stroke-linejoin: round; transform-origin: 409.47px 256.798px;" id="elsdcyzves7l" class="animable"></path><path d="M393.43,249.57s-2.4,6.91-1.89,7.86,2.47,2,4.87.87" style="fill: none; stroke: rgb(38, 50, 56); stroke-linecap: round; stroke-linejoin: round; transform-origin: 393.939px 254.18px;" id="elqgwh9ntqop" class="animable"></path><path d="M394.38,261.57a6.58,6.58,0,0,0,6.25-1.09" style="fill: none; stroke: rgb(38, 50, 56); stroke-linecap: round; stroke-linejoin: round; transform-origin: 397.505px 261.203px;" id="elvncnc6ssvb" class="animable"></path><path d="M391,249.82c0,.79-.28,1.42-.62,1.42s-.62-.63-.62-1.42.28-1.41.62-1.41S391,249,391,249.82Z" style="fill: rgb(38, 50, 56); transform-origin: 390.38px 249.825px;" id="elxm59ueru4jr" class="animable"></path><ellipse cx="399.51" cy="250.77" rx="0.62" ry="1.42" style="fill: rgb(38, 50, 56); transform-origin: 399.51px 250.77px;" id="ellwyjymv86i" class="animable"></ellipse><path d="M393.5,249.39a4.18,4.18,0,1,1-4.18-4.18A4.18,4.18,0,0,1,393.5,249.39Z" style="fill: none; stroke: rgb(38, 50, 56); stroke-linecap: round; stroke-linejoin: round; transform-origin: 389.32px 249.39px;" id="elh3kglqz0t1w" class="animable"></path><path d="M404.35,250.29a4.4,4.4,0,1,1-4.4-4.41A4.4,4.4,0,0,1,404.35,250.29Z" style="fill: none; stroke: rgb(38, 50, 56); stroke-linecap: round; stroke-linejoin: round; transform-origin: 399.95px 250.28px;" id="el5mwbqmqaeib" class="animable"></path><path d="M393.5,248.62a1.67,1.67,0,0,1,2,.37" style="fill: none; stroke: rgb(38, 50, 56); stroke-linecap: round; stroke-linejoin: round; transform-origin: 394.5px 248.714px;" id="eljuke9vxkx4" class="animable"></path><line x1="404.27" y1="250.73" x2="409.51" y2="252.92" style="fill: none; stroke: rgb(38, 50, 56); stroke-linecap: round; stroke-linejoin: round; transform-origin: 406.89px 251.825px;" id="elpi16izk7hva" class="animable"></line><line x1="350.68" y1="352.17" x2="356.3" y2="354.44" style="fill: rgb(255, 255, 255); stroke: rgb(38, 50, 56); stroke-linecap: round; stroke-linejoin: round; transform-origin: 353.49px 353.305px;" id="elomf6fc10ajn" class="animable"></line><path d="M345.5,369.29s.79,4.62,1.33,4.87.73-2.25.55-3.83l-.18-1.58s.85,4.13,1.7,4.5.37-1.46.12-2.38l-.24-.91s2.13,2.25,2.31,1.7-1.28-3.28-1.34-3.46A22.49,22.49,0,0,1,349,365c-.06-.85-1.27-4.26-2.49-2.13S345.5,369.29,345.5,369.29Z" style="fill: rgb(204, 204, 204); stroke: rgb(38, 50, 56); stroke-linecap: round; stroke-linejoin: round; transform-origin: 348.296px 368.179px;" id="elxs8ssvnc7jc" class="animable"></path><path d="M349.61,355.24s-4,6.42-5.08,8.56-1.87,10.16-.93,10.7,1.19-1.42,1.41-2.77a21.07,21.07,0,0,1,1.7-4.63s-.57,5.12.23,5,1.47-4.81,2-6,3.75-2.94,4.82-8Z" style="fill: rgb(204, 204, 204); stroke: rgb(38, 50, 56); stroke-linecap: round; stroke-linejoin: round; transform-origin: 348.471px 364.916px;" id="el8sojdmy799l" class="animable"></path><path d="M346.71,367.1s0-.68.49-3.22" style="fill: rgb(255, 255, 255); stroke: rgb(38, 50, 56); stroke-linecap: round; stroke-linejoin: round; transform-origin: 346.955px 365.49px;" id="el7oyitz0bg55" class="animable"></path><path d="M415.93,277.3a20,20,0,0,1,6.68,8.95c2.54,6.29,11.23,33.7,11.5,34.23s0,5.88-4.28,7.62-6.28-2-8.82-6.28-8.42-23.27-8.42-23.27" style="fill: #FE4934; stroke: rgb(38, 50, 56); stroke-linecap: round; stroke-linejoin: round; transform-origin: 423.387px 302.918px;" id="eleeb8in0tg4f" class="animable"></path><path d="M426.89,312.73l20.76-10.2,3.61,4.15S436,325.29,432.64,327.43s-7.49,1.61-9.09-2" style="fill: #FE4934; stroke: rgb(38, 50, 56); stroke-linecap: round; stroke-linejoin: round; transform-origin: 437.405px 315.611px;" id="elhz3r4l4r70i" class="animable"></path><line x1="445.38" y1="304" x2="449.25" y2="308.68" style="fill: rgb(255, 255, 255); stroke: rgb(38, 50, 56); stroke-linecap: round; stroke-linejoin: round; transform-origin: 447.315px 306.34px;" id="elly58hd7hsrp" class="animable"></line><path d="M447.65,302.53s4.55-7.08,5.88-7.62,5.08-1.33,7.22-2.94,3.34-1.2,2.14.54-2.54,2-3.74,2.54a9.48,9.48,0,0,0-1.74.93s3.34.14,5.48.27a15.15,15.15,0,0,0,3.88-.27s5.48-2.4,4.14.54-1.2,4.81-6.55,6.41a38.67,38.67,0,0,1-10.69,1.48l-2.41,2.27Z" style="fill: rgb(204, 204, 204); stroke: rgb(38, 50, 56); stroke-linecap: round; stroke-linejoin: round; transform-origin: 459.386px 298.819px;" id="el5m3ere28dtd" class="animable"></path><path d="M468.64,300.93a5.89,5.89,0,0,0,3.61-3.74c.94-2.95.4-3.08-.8-2a14.29,14.29,0,0,0-2.81,4.15C468,300.66,468.64,300.93,468.64,300.93Z" style="fill: rgb(204, 204, 204); stroke: rgb(38, 50, 56); stroke-linecap: round; stroke-linejoin: round; transform-origin: 470.542px 297.75px;" id="elxeam3givgx" class="animable"></path><path d="M467.44,301.06s1.6,1.07,2.81-2.14,1.06-5.75,0-5.21-1.34.67-2.68,3.48-2.54,4-1.74,4.27A1.9,1.9,0,0,0,467.44,301.06Z" style="fill: rgb(204, 204, 204); stroke: rgb(38, 50, 56); stroke-linecap: round; stroke-linejoin: round; transform-origin: 468.337px 297.569px;" id="elg7qmz2ut08n" class="animable"></path><path d="M452.06,302.27s2-3.35,4.28-3.35a76.94,76.94,0,0,1,8.29,1.07s4.41-6.41,5.35-5.48-1.47,5.35-2.54,6.55-1.21,1.34-2.14,1.61" style="fill: rgb(204, 204, 204); stroke: rgb(38, 50, 56); stroke-linecap: round; stroke-linejoin: round; transform-origin: 461.127px 298.544px;" id="elmbfozzxcyxl" class="animable"></path><line x1="388.92" y1="364.47" x2="382.77" y2="361.53" style="fill: none; stroke: rgb(125, 125, 125); stroke-linecap: round; stroke-linejoin: round; transform-origin: 385.845px 363px;" id="eldiecoyz0qlw" class="animable"></line></g><defs>     <filter id="active" height="200%">         <feMorphology in="SourceAlpha" result="DILATED" operator="dilate" radius="2"></feMorphology>                <feFlood flood-color="#32DFEC" flood-opacity="1" result="PINK"></feFlood>        <feComposite in="PINK" in2="DILATED" operator="in" result="OUTLINE"></feComposite>        <feMerge>            <feMergeNode in="OUTLINE"></feMergeNode>            <feMergeNode in="SourceGraphic"></feMergeNode>        </feMerge>    </filter>    <filter id="hover" height="200%">        <feMorphology in="SourceAlpha" result="DILATED" operator="dilate" radius="2"></feMorphology>                <feFlood flood-color="#ff0000" flood-opacity="0.5" result="PINK"></feFlood>        <feComposite in="PINK" in2="DILATED" operator="in" result="OUTLINE"></feComposite>        <feMerge>            <feMergeNode in="OUTLINE"></feMergeNode>            <feMergeNode in="SourceGraphic"></feMergeNode>        </feMerge>            <feColorMatrix type="matrix" values="0   0   0   0   0                0   1   0   0   0                0   0   0   0   0                0   0   0   1   0 "></feColorMatrix>    </filter></defs></svg>